# xmcd
#
# Track frame offsets:
#	150
#	15615
#	24485
#	34545
#	45477
#	55642
#	68727
#	78325
#	85115
#	92807
#
# Disc length: 1462 seconds
#
# Revision: 1
# Processed by: cddbd v1.4PL0 Copyright (c) Steve Scherf et al.
# Submitted via: audiograbber 1.80
#
DISCID=6805b40a
DTITLE=Bing Crosby - Golden Legends
DYEAR=1900
DGENRE=
TTITLE0=P.S. I Love You
TTITLE1=Come What May
TTITLE2=Everything I Have Is Yours
TTITLE3=I Got The Sun In The Morning
TTITLE4=Cockeyed Optimist
TTITLE5=If I Had My Way
TTITLE6=Lady Of Spain
TTITLE7=Pittsburgh Pennsylvannia
TTITLE8=Zip-A-Dee-Doo-Dah
TTITLE9=You Go To My Head
EXTD=
EXTT0=
EXTT1=
EXTT2=
EXTT3=
EXTT4=
EXTT5=
EXTT6=
EXTT7=
EXTT8=
EXTT9=
PLAYORDER=
